<svg width="400" height="200" viewBox="0 0 400 200" fill="none" xmlns="http://www.w3.org/2000/svg">
<g clip-path="url(#clip0_113_63)">
<path fill-rule="evenodd" clip-rule="evenodd" d="M0.460938 -0.246094H400.016V200.001H0.460938V-0.246094Z" fill="white"/>
<path fill-rule="evenodd" clip-rule="evenodd" d="M244.212 106.912V9.51953H12.6953V84.895L21.3895 69.4324H36.0775L40.968 78.5617V69.4324H58.9163L64.3502 78.5617L69.6523 69.4324H132.998C135.452 69.4324 138.844 70.0826 140.342 72.2284V69.4324H153.664V72.7616C155.294 70.9409 157.879 69.4324 163.049 69.4324H190.104L194.994 78.3406V69.4324H211.032L216.598 77.1572V69.4324H231.286V97.9908H215.511L208.99 89.5117V97.9908H189L185.872 92.4118H179.483L176.486 97.9908H163.971C161.255 97.7827 154.997 96.9244 153.647 93.5952V97.9908H129.606V91.6575C129.606 90.7992 128.519 89.7198 127.153 89.7198H124.568V97.9908H73.4561V91.5535L69.5206 97.9908H59.1962L55.2608 91.4364V97.9908H34.7108L31.9938 92.8409H25.4732L22.6245 97.9908H12.6953V190.012H244.212V133.65C242.993 134.729 240.952 135.588 237.955 135.588H218.656V133.429C217.158 134.716 215.116 135.575 211.724 135.575H157.204V129.553C157.072 128.799 157.615 127.186 154.899 127.186H152.593V135.562H138.185V125.899C136.687 127.837 133.426 127.941 131.253 128.045H123.645V135.562H104.314L98.7319 130.191L92.7546 135.562H59.8713V106.912H93.3145L99.0283 112.179L105.006 106.912H131.385C133.295 107.016 136.818 107.77 138.185 109.279V106.912H160.612C162.654 106.912 166.458 107.666 168.088 109.708V106.912H196.361V109.487C197.859 107.874 200.164 106.912 203.836 106.912H221.916V109.383C223.283 107.77 226.807 106.912 228.981 106.912H244.212Z" fill="#00ACEC"/>
<path fill-rule="evenodd" clip-rule="evenodd" d="M386.415 124.301L302.947 190.014H314.77L386.415 133.651V124.301Z" fill="#33348E"/>
<path fill-rule="evenodd" clip-rule="evenodd" d="M386.416 142.664L326.33 190.014H338.153L386.416 152.001V142.664Z" fill="#00ACEC"/>
<path fill-rule="evenodd" clip-rule="evenodd" d="M386.415 161.027L349.58 190.015H361.535L386.415 170.365V161.027Z" fill="#33A457"/>
<path fill-rule="evenodd" clip-rule="evenodd" d="M200.428 -0.246094H0.460938V200.001H400.016V-0.246094H200.428ZM395.801 196.451H5.07151V3.40824H395.785L395.801 196.451Z" fill="#00ACEC"/>
<path fill-rule="evenodd" clip-rule="evenodd" d="M265.964 173.16C260.118 173.16 255.359 176.814 255.359 181.431C255.359 185.944 260.118 189.702 265.964 189.702C271.677 189.702 276.436 185.944 276.436 181.431C276.42 176.867 271.743 173.16 265.964 173.16ZM265.964 188.727C260.793 188.623 256.726 185.398 256.726 181.431C256.726 177.348 260.793 174.123 265.964 174.123C270.986 174.123 275.07 177.348 275.07 181.431C275.07 185.398 270.986 188.727 265.964 188.727Z" fill="#00ACEC"/>
<path fill-rule="evenodd" clip-rule="evenodd" d="M271.266 179.167C271.266 178.412 270.855 177.658 270.048 177.229C269.093 176.8 268.138 176.8 267.183 176.8H262.012V186.033H263.511V181.741H266.096L269.488 186.033H271.118L267.578 181.741C269.636 181.741 271.266 181 271.266 179.167ZM265.964 180.883H263.511V177.554H266.771C268.27 177.554 269.9 177.762 269.9 179.167C269.9 181 267.594 180.883 265.964 180.883ZM64.2189 87.4701L55.9198 72.7617H45.1838V93.8034L33.2128 72.7617H24.2386L12.1523 94.6747H19.3646L21.9498 89.7329H35.551L38.2679 94.6747H52.0009V78.3538L61.0903 94.6747H67.3475L76.5851 78.6789V94.6747H83.3857V72.7617H72.5014L64.2189 87.4701ZM28.7339 85.0122H24.6503L28.7339 77.3914V77.5995L32.9493 85.0122H28.7339ZM140.079 78.5618C140.079 73.9451 135.32 72.7617 131.928 72.7617H114.244V94.6747H121.044V86.9499H129.887C132.34 86.9499 133.279 88.7706 133.279 90.6042L133.41 94.6877H140.079L139.799 90.1751C139.799 86.6378 138.581 85.0252 135.452 84.7001C139.124 83.1785 140.079 81.2408 140.079 78.5618ZM129.475 82.4242H121.044V77.4824H129.475C132.324 77.4824 133.279 78.8739 133.279 79.9533C133.279 81.4619 132.324 82.4242 129.475 82.4242ZM143.603 94.6747H150.404V72.7617H143.603V94.6747ZM220.55 72.7617V87.9122L208.991 72.7747H198.93V93.2832L187.239 72.7747H178.265L168.879 89.7329C168.879 89.7329 165.487 89.7329 165.075 89.6289C162.902 89.4208 160.316 87.6912 160.316 83.8288C160.316 78.6789 163.857 77.4954 168.335 77.4954H172.551V72.7747H163.708C160.58 72.7747 153.779 74.5954 153.647 83.6207C153.384 89.6289 156.776 94.6747 164.384 94.6747H173.358L175.943 89.7329H189.544L192.261 94.6747H205.714V78.6789L217.948 94.6747H227.334V72.7617H220.55ZM182.892 85.0122H178.676L182.76 77.3914L182.892 77.5995L186.975 85.0122H182.892ZM88.0127 94.6747H110.308V90.058H94.8133V85.7665H109.913V81.5789H94.8133V77.4954H110.308V72.7747H88.0127V94.6747ZM210.769 118.825C210.358 118.825 206.554 118.72 206.01 118.72C204.38 118.616 203.145 118.291 203.145 117.004C203.145 114.858 205.73 115.066 208.167 115.066H218.64V110.345H204.232C199.885 110.345 196.213 112.608 196.213 116.679C196.213 120.32 197.975 123.337 205.451 123.441C205.994 123.441 209.254 123.545 210.209 123.649C212.251 123.857 212.663 124.508 212.663 125.47C212.663 127.616 209.946 127.616 208.036 127.616H196.888V132.232H211.164C215.66 132.232 219.859 130.087 219.859 126.003C219.875 122.479 219.2 119.15 210.769 118.825ZM236.325 118.825C235.913 118.825 232.11 118.72 231.566 118.72C229.936 118.616 228.717 118.291 228.717 117.004C228.717 114.858 231.303 115.066 233.608 115.066H244.081V110.345H229.804C225.325 110.345 221.653 112.608 221.653 116.679C221.653 120.32 223.415 123.337 231.039 123.441C231.583 123.441 234.843 123.545 235.798 123.649C237.708 123.857 238.251 124.508 238.251 125.47C238.251 127.616 235.403 127.616 233.493 127.616H222.345V132.232H236.753C241.232 132.232 245.447 130.087 245.447 126.003C245.431 122.479 244.756 119.15 236.325 118.825ZM130.562 110.345H106.636L98.8805 117.108L91.273 110.345H64.3506V132.141H90.4497L98.6006 124.95L106.62 132.245H119.677V124.833H128.783C132.324 124.833 138.844 124.729 138.844 116.991C138.844 111.633 133.954 110.345 130.562 110.345ZM86.7777 127.629H71.2829V123.233H86.2344V119.15H71.2829V115.066H86.7777L94.3852 120.97L86.7777 127.629ZM112.877 130.1L107.986 125.587L103.096 120.97L107.986 116.783L112.877 112.491V130.1ZM128.108 120.333H119.677V115.066H128.108C130.957 115.066 131.912 116.458 131.912 117.537C131.912 119.046 130.973 120.333 128.108 120.333ZM167.94 116.25C167.94 111.529 163.05 110.345 159.789 110.345H141.973V132.245H148.773V124.521H157.748C160.053 124.521 161.008 126.341 161.14 128.279L161.271 132.245H167.94L167.677 127.733C167.677 124.195 166.458 122.583 163.198 122.258C166.985 120.866 167.94 118.825 167.94 116.25ZM157.336 120.008H148.773V115.066H157.336C160.185 115.066 161.14 116.458 161.14 117.537C161.14 119.046 160.053 120.008 157.336 120.008ZM171.349 132.141H193.512V127.629H178.149V123.233H193.101V119.15H178.149V115.066H193.512V110.345H171.349V132.141ZM273.308 112.387C267.594 112.387 266.508 108.85 266.508 105.092C266.508 99.9416 268.961 97.2497 272.765 97.2497C276.305 97.2497 278.61 98.8622 278.89 101.645H289.495C288.688 94.7788 282.826 90.6953 272.37 90.6953C262.852 90.6953 255.376 96.0662 255.376 104.766C255.376 113.571 262.177 118.942 273.456 118.942C282.431 118.942 288.82 114.754 289.775 107.888H279.039C278.61 110.449 276.832 112.387 273.308 112.387ZM317.767 106.262C317.767 101.645 317.076 98.212 305.253 98.212H303.886C295.192 98.4201 291.784 100.787 291.784 104.766H301.169C301.449 103.375 302.668 102.933 303.886 102.933C304.15 102.829 304.43 102.829 304.71 102.829C305.665 102.829 307.97 103.037 307.97 104.441C307.97 105.625 306.208 105.95 303.886 106.262C298.716 106.899 290.285 106.795 290.285 112.92C290.285 117.004 294.369 118.825 299.127 118.825C300.889 118.825 302.388 118.72 303.886 118.395C305.516 117.966 307.015 117.316 308.382 116.25L309.468 118.291H318.311C317.899 117.537 317.767 116.575 317.767 115.391V106.262ZM303.886 114.429H303.079C301.038 114.429 299.951 113.779 299.951 112.816C299.951 111.204 301.713 110.879 303.886 110.567C305.253 110.345 306.751 110.137 307.97 109.708C307.97 113.024 306.751 114.208 303.886 114.429ZM328.767 102.725V98.7582H319.793V118.291H329.59V110.567C329.59 106.379 331.632 104.87 335.699 104.87H337.741V98.316C337.329 98.212 336.786 98.212 336.374 98.212C332.571 98.212 330.134 99.6035 328.767 102.725ZM356.364 91.4495V100.683C355.146 99.6035 353.911 98.9663 352.429 98.5371C351.474 98.3291 350.255 98.212 348.889 98.212C343.043 98.212 338.416 102.4 338.416 108.837C338.416 114.416 342.22 118.825 349.696 118.825C350.651 118.825 351.606 118.825 352.413 118.616C354.323 118.187 355.673 117.329 357.303 115.716V118.291H366.145V91.4495H356.364ZM352.429 113.245H352.149C348.889 113.245 348.345 110.879 348.345 108.85C348.345 106.704 349.152 104.233 352.429 104.233C355.689 104.233 356.644 106.6 356.644 108.746C356.644 110.879 355.689 113.141 352.429 113.245Z" fill="#00ACEC"/>
</g>
<defs>
<clipPath id="clip0_113_63">
<rect width="400" height="200" fill="white"/>
</clipPath>
</defs>
</svg>
