<svg width="400" height="200" viewBox="0 0 400 200" fill="none" xmlns="http://www.w3.org/2000/svg">
<g clip-path="url(#clip0_113_73)">
<path fill-rule="evenodd" clip-rule="evenodd" d="M0 200H400V0H0V200Z" fill="#1B3771"/>
<path fill-rule="evenodd" clip-rule="evenodd" d="M200.316 163.901C219.619 177.796 245.574 186.269 273.669 186.269C334.158 186.269 383.048 147.62 383.048 99.8319C383.048 52.2102 334.158 13.3945 273.669 13.3945C245.574 13.3945 219.619 21.8677 200.316 35.7631C178.223 51.6971 164.289 74.4124 164.289 99.8319C164.289 125.251 178.223 148.133 200.316 163.901Z" fill="#E9B040"/>
<path fill-rule="evenodd" clip-rule="evenodd" d="M368.482 147.968C368.482 146.443 369.974 145.25 372.133 145.25C374.063 145.25 375.572 146.443 375.572 147.968C375.572 149.494 374.063 150.853 372.133 150.853C370.132 150.866 368.5 149.591 368.482 148.024C368.482 147.996 368.482 147.982 368.482 147.968ZM372.115 150.173C373.396 150.173 374.695 149.161 374.695 147.968C374.695 146.775 373.414 145.93 372.115 145.93C370.606 145.93 369.325 146.775 369.325 147.968C369.325 149.147 370.623 150.173 372.115 150.173ZM371.483 149.327H370.834V146.789H372.115C372.326 146.789 372.764 146.789 372.975 146.956C373.185 147.122 373.396 147.302 373.396 147.469C373.396 147.816 373.185 148.148 372.764 148.148L373.396 149.341H372.536L372.115 148.329H371.466L371.483 149.327ZM371.483 147.802H372.343C372.554 147.802 372.554 147.635 372.554 147.455C372.554 147.455 372.554 147.289 372.343 147.289H371.483V147.802Z" fill="#E9B040"/>
<path fill-rule="evenodd" clip-rule="evenodd" d="M235.712 90.6792C235.273 87.6006 234.641 84.5497 233.781 81.5266H166.869C167.746 78.4341 168.817 75.3832 170.08 72.3739H230.57C229.254 69.2675 227.745 66.2166 226.06 63.2212H174.59C176.573 60.1009 178.714 57.0501 181.03 54.0685H219.637C217.233 50.8096 214.443 47.7448 211.267 44.9158H189.384C192.595 41.6985 196.456 38.6476 200.316 35.7631C181.013 21.8677 155.269 13.3945 126.964 13.3945C66.474 13.3945 17.584 52.2102 17.584 99.8319C17.584 147.634 66.4916 186.269 126.964 186.269C155.269 186.269 181.013 177.796 200.316 163.901C204.177 161.016 208.038 157.965 211.477 154.748H189.384C186.365 151.836 183.557 148.785 181.013 145.595H219.62C222.024 142.655 224.165 139.604 226.06 136.443H174.59C172.835 133.475 171.326 130.424 170.08 127.29H230.57C231.833 124.281 232.921 121.23 233.781 118.137C234.641 115.086 235.273 112.035 235.712 108.985C236.571 102.897 236.571 96.7533 235.712 90.6792Z" fill="#CC2131"/>
<path fill-rule="evenodd" clip-rule="evenodd" d="M368.482 119.831C368.482 118.306 369.974 117.113 372.133 117.113C374.063 117.113 375.572 118.306 375.572 119.831C375.572 121.357 374.063 122.716 372.133 122.716C370.132 122.73 368.5 121.468 368.482 119.887C368.482 119.859 368.482 119.845 368.482 119.831ZM372.115 122.036C373.396 122.036 374.695 121.024 374.695 119.831C374.695 118.639 373.414 117.793 372.115 117.793C370.606 117.793 369.325 118.639 369.325 119.831C369.325 121.01 370.623 122.036 372.115 122.036ZM371.483 121.19H370.834V118.653H372.115C372.326 118.653 372.764 118.653 372.975 118.819C373.185 118.985 373.396 119.166 373.396 119.332C373.396 119.679 373.185 120.012 372.764 120.012L373.396 121.204H372.536L372.115 120.192H371.466L371.483 121.19ZM371.483 119.665H372.343C372.554 119.665 372.554 119.499 372.554 119.318C372.554 119.318 372.554 119.152 372.343 119.152H371.483V119.665Z" fill="white"/>
<path fill-rule="evenodd" clip-rule="evenodd" d="M163.219 124.742C159.569 125.588 157.007 125.934 154.217 125.934C148.636 125.934 145.214 123.216 145.214 118.141C145.214 117.129 145.425 116.102 145.635 114.924L146.285 111.54L146.934 108.655L152.076 84.2482H163.447L162.166 89.6705H169.238L167.518 98.6567H160.446L157.235 113.232C157.235 113.745 157.024 114.244 157.024 114.591C157.024 116.449 158.305 117.309 161.096 117.309C162.605 117.309 163.447 117.142 164.746 116.962L163.219 124.742ZM199.895 124.409C195.947 125.408 191.823 125.934 187.664 125.934C175.012 125.934 167.501 120.512 167.501 110.001C167.501 97.7969 176.293 88.6442 188.313 88.6442C197.965 88.6442 204.177 93.7337 204.177 101.694C204.177 104.232 203.756 106.783 202.686 110.514H179.083V111.526C179.083 115.756 182.522 117.794 189.384 117.794C193.666 117.794 197.526 117.115 201.826 115.589L199.895 124.409ZM192.823 103.219V101.527C192.823 98.6429 190.682 96.951 187.243 96.951C183.382 96.951 180.803 99.156 179.732 103.219H192.823ZM72.4934 125.255H60.7008L67.5623 91.5287L52.3302 125.255H44.1877L43.3278 91.6951L36.0277 125.255H24.6562L33.8868 81.3498H50.821L51.4703 108.475L62.8417 81.3498H81.7239L72.4934 125.255ZM101.027 109.321C99.7462 109.321 99.5181 109.155 98.6757 109.155C92.0249 109.155 88.6029 111.193 88.6029 114.577C88.6029 116.948 90.3227 118.307 92.8847 118.307C98.6582 118.307 100.799 114.577 101.027 109.321ZM110.451 125.255H100.15L100.36 121.525C97.7808 124.409 94.3588 125.934 87.9185 125.934C82.1275 125.934 77.407 121.871 77.407 116.102C77.407 114.41 77.8281 112.885 78.2668 111.526C80.1972 105.937 87.2692 102.54 97.9913 102.373C99.2724 102.373 101.431 102.373 103.133 102.54C103.554 101.361 103.554 100.848 103.554 100.168C103.554 97.7969 101.203 97.1174 95.6223 97.1174C92.1828 97.1174 88.5503 97.6305 85.7601 98.1298L84.2684 98.6429H83.4086L85.1283 90.6828C90.7087 89.3238 94.5694 88.8245 98.8512 88.8245C109.152 88.8245 114.504 92.3885 114.504 99.3362C114.504 101.028 114.715 102.387 113.855 106.284L111.521 118.987L111.1 121.192L110.679 123.05V124.243L110.451 125.255ZM256.945 90.0033C260.157 90.0033 263.158 90.6828 267.457 92.3747L269.387 82.7089C268.317 82.376 268.106 82.376 266.597 81.8629L261.666 81.017C260.157 80.6842 258.455 80.5039 256.314 80.5039C250.523 80.5039 247.083 80.5039 243.451 82.3622C241.52 83.2081 239.169 84.5671 236.379 86.9385L235.098 86.5918L222.866 93.3731L223.516 89.6427H210.863L203.791 125.241H215.584L219.866 106.09C219.866 106.09 221.585 103.372 222.445 102.526C224.586 100.321 226.516 100.321 228.885 100.321H229.745C229.535 102.359 229.307 104.731 229.307 107.102C229.307 118.793 237.677 126.087 250.54 126.087C253.752 126.087 256.542 125.74 260.841 124.728L262.982 114.729C259.121 116.255 255.91 116.934 252.909 116.934C246.048 116.934 241.977 113.038 241.977 106.256C241.924 96.7846 247.943 90.0033 256.945 90.0033ZM357.112 81.3498L354.533 93.9001C351.742 90.5164 348.32 88.9909 343.81 88.9909C337.598 88.9909 331.807 91.709 328.157 96.951L320.646 93.387L321.296 89.6566H308.643L301.361 125.255H313.364L317.224 106.104C317.224 106.104 320.225 103.386 321.085 102.54C322.805 100.848 324.735 100.335 326.227 100.335C324.805 103.718 324.086 107.269 324.086 110.846C324.086 119.833 330.088 125.754 338.669 125.754C342.951 125.754 346.39 124.575 349.601 121.691L348.952 125.255H360.324L369.326 81.3498H357.112ZM342.74 116.782C338.669 116.782 336.738 114.577 336.738 109.834C336.738 102.886 340.388 97.7969 345.951 97.7969C350.023 97.7969 352.181 100.335 352.181 104.911C352.181 111.873 348.32 116.782 342.74 116.782ZM288.041 109.321C286.76 109.321 286.55 109.155 285.69 109.155C279.039 109.155 275.599 111.193 275.599 114.577C275.599 116.948 277.319 118.307 279.881 118.307C285.69 118.307 287.831 114.577 288.041 109.321ZM297.482 125.255H287.199L287.41 121.525C284.83 124.409 281.408 125.934 274.968 125.934C269.177 125.934 264.035 122.038 264.035 116.102C264.246 107.629 272.178 102.373 285.058 102.373C286.339 102.373 288.498 102.373 290.2 102.54C290.639 101.361 290.639 100.848 290.639 100.168C290.639 97.7969 288.287 97.1174 282.707 97.1174C279.267 97.1174 275.424 97.6305 272.844 98.1298L271.125 98.6429H270.475L272.195 90.6828C277.775 89.3238 281.636 88.8245 285.918 88.8245C296.219 88.8245 301.571 92.3885 301.571 99.3362C301.571 101.028 301.782 102.387 300.922 106.284L298.57 119.001L298.132 121.206L297.711 123.064L297.5 124.257V125.255H297.482ZM135.124 97.2838C137.475 97.2838 140.704 97.4502 144.126 97.7969L145.846 89.4902C142.407 89.1574 137.914 88.8107 135.124 88.8107C122.033 88.8107 117.54 94.3993 117.54 101.014C117.54 105.244 120.12 108.475 126.332 110.68C131.263 112.538 132.123 112.885 132.123 114.41C132.123 116.615 129.543 117.974 124.823 117.974C121.401 117.974 118.172 117.461 114.311 116.615L113.03 124.756H113.241L115.382 125.102C116.031 125.269 117.102 125.435 118.383 125.435C121.383 125.768 123.735 125.768 125.244 125.768C138.335 125.768 143.898 121.871 143.898 113.911C143.898 109.002 140.897 106.118 134.896 104.079C129.982 102.207 129.333 102.04 129.333 100.335C129.333 98.6429 131.474 97.2838 135.124 97.2838Z" fill="#1B3771"/>
<path fill-rule="evenodd" clip-rule="evenodd" d="M272.599 80.0018L270.668 89.4873C266.387 87.7955 263.386 87.116 260.157 87.116C251.154 87.116 244.925 93.8973 244.925 103.563C244.925 110.178 249.207 114.241 256.068 114.241C259.069 114.241 262.298 113.562 266.158 112.036L264.017 122.035C259.736 122.881 256.945 123.227 253.506 123.227C240.853 123.227 232.922 116.113 232.922 104.409C232.922 88.6414 243.854 77.7969 259.508 77.7969C261.648 77.7969 263.368 77.9633 264.877 78.1297L269.808 79.142C271.318 79.6551 271.528 79.6552 272.599 80.0018ZM234.641 86.6029C234.203 86.4365 233.781 86.4365 233.36 86.4365C229.5 86.4365 227.359 87.9619 223.709 92.2054L224.779 86.7831H213.846L206.774 122.548H218.567C222.849 100.679 223.919 96.9482 229.728 96.9482H230.588C231.658 92.7047 232.939 89.4873 235.098 86.6029H234.641ZM166.22 122.035C163.008 122.881 160.429 123.227 157.639 123.227C151.637 123.227 148.197 120.509 148.197 115.434C148.197 114.421 148.408 113.395 148.619 112.217L149.268 108.653L149.917 105.934L155.059 81.5273H166.852L165.57 86.7831H171.572L169.852 95.603H163.851L160.639 110.344C160.639 111.024 160.429 111.537 160.429 111.87C160.429 113.728 161.71 114.588 164.5 114.588C166.009 114.588 166.852 114.421 167.711 114.241L166.22 122.035ZM120.541 98.1408C120.541 102.551 123.331 105.768 129.543 107.973C134.475 109.831 135.124 110.344 135.124 112.036C135.124 114.241 132.983 115.254 128.262 115.254C124.823 115.254 121.612 114.74 117.751 113.728L116.031 122.035H116.68L118.821 122.382C119.787 122.617 120.804 122.728 121.822 122.714C124.612 122.881 126.964 123.047 128.473 123.047C140.915 123.047 146.706 119.317 146.706 111.19C146.706 106.281 144.354 103.397 138.335 101.192C133.404 99.4998 132.755 98.9867 132.755 97.4613C132.755 95.4227 134.685 94.4104 138.546 94.4104C140.897 94.4104 144.126 94.7432 147.127 95.0899L148.847 86.7831C145.846 86.4503 141.125 86.1036 138.335 86.1036C125.033 86.1036 120.541 91.5259 120.541 98.1408ZM363.324 122.548H351.953L352.585 118.984C349.373 121.702 345.934 122.881 341.652 122.881C333.071 122.881 327.28 117.126 327.28 108.139C327.28 96.2687 336.072 86.27 346.583 86.27C351.304 86.27 354.743 87.7955 357.954 91.1792L360.534 78.6289H372.327L363.324 122.548ZM345.741 114.061C351.321 114.061 355.182 109.152 355.182 102.024C355.182 97.6138 353.041 95.076 348.97 95.076C343.617 95.076 339.739 99.9852 339.739 107.113C339.739 111.69 341.669 114.061 345.741 114.061ZM202.475 121.688C198.404 122.7 194.543 123.214 190.244 123.214C176.942 123.214 170.08 117.625 170.08 107.28C170.08 94.9096 178.872 85.9233 190.893 85.9233C200.545 85.9233 206.757 91.0128 206.757 98.9729C206.757 101.511 206.336 104.062 205.476 107.793H181.891C181.68 108.306 181.68 108.472 181.68 108.805C181.68 112.868 185.119 115.073 192.192 115.073C196.263 115.073 200.123 114.394 204.423 112.868L202.475 121.688ZM195.824 100.512V98.6539C195.824 95.7694 193.894 94.0776 190.244 94.0776C186.594 94.0776 183.803 96.4489 182.733 100.512H195.824ZM75.4941 122.548H63.7016L70.563 88.8217L55.3309 122.548H47.1884L46.3286 88.9881L39.0284 122.548H28.0957L37.3262 78.6428H54.2605L54.9098 105.768L66.2812 78.6428H84.7246L75.4941 122.548ZM104.888 106.614C103.607 106.448 102.958 106.448 102.098 106.448C95.4468 106.448 92.0248 108.306 92.0248 111.87C92.0248 114.075 93.7446 115.6 96.3066 115.6C101.238 115.6 104.66 111.87 104.888 106.614ZM113.452 122.548H103.589L103.8 118.818C100.799 121.702 96.9384 123.047 91.358 123.047C84.9177 123.047 80.6358 119.15 80.6358 113.381C80.6358 104.742 88.1466 99.6524 101.448 99.6524C102.729 99.6524 104.449 99.6524 106.169 99.8188C106.59 98.8064 106.59 98.2933 106.59 97.6138C106.59 95.2424 104.66 94.3965 99.0793 94.3965C95.6398 94.3965 91.7791 94.7293 89.2171 95.4089L87.4973 95.7417L86.4268 95.9081L88.1466 87.948C94.1482 86.589 98.0088 86.0898 102.308 86.0898C112.609 86.0898 117.961 89.6538 117.961 96.4351C117.961 98.2933 117.751 99.6524 116.891 103.549L114.54 116.266L114.118 118.471L113.908 120.329L113.697 121.522L113.452 122.548ZM291.902 106.614C290.621 106.448 289.972 106.448 289.112 106.448C282.461 106.448 279.021 108.306 279.021 111.87C279.021 114.075 280.741 115.6 283.303 115.6C288.041 115.6 291.691 111.87 291.902 106.614ZM300.483 122.548H290.621L290.832 118.818C287.831 121.702 283.76 123.047 278.39 123.047C271.949 123.047 267.457 119.15 267.457 113.381C267.457 104.742 275.178 99.6524 288.48 99.6524C289.761 99.6524 291.481 99.6524 293.201 99.8188C293.639 98.8064 293.639 98.2933 293.639 97.6138C293.639 95.2424 291.709 94.3965 286.129 94.3965C282.689 94.3965 278.846 94.7293 276.266 95.4089L274.547 95.7417L273.476 95.9081L275.196 87.948C281.197 86.589 285.058 86.0898 289.357 86.0898C299.658 86.0898 305.011 89.6538 305.011 96.4351C305.011 98.2933 304.8 99.6524 303.94 103.549L301.589 116.266L301.168 118.471L300.729 120.329L300.518 121.522L300.483 122.548ZM332.228 86.6029C332.018 86.4365 331.579 86.4365 331.158 86.4365C327.297 86.4365 324.946 87.9619 321.296 92.2054L322.366 86.7831H311.644L304.344 122.548H316.347C320.418 100.679 321.717 96.9482 327.28 96.9482H328.14C329.21 92.7047 330.719 89.4873 332.65 86.6029H332.228Z" fill="white"/>
</g>
<defs>
<clipPath id="clip0_113_73">
<rect width="400" height="200" fill="white"/>
</clipPath>
</defs>
</svg>
