<svg width="400" height="200" viewBox="0 0 400 200" fill="none" xmlns="http://www.w3.org/2000/svg">
<g clip-path="url(#clip0_113_82)">
<path d="M366.372 200H33.6283C15.0442 200 0 179.103 0 153.288V46.7117C0 20.8974 15.0442 0 33.6283 0H366.372C384.956 0 400 20.8974 400 46.7117V153.288C400 179.103 384.956 200 366.372 200Z" fill="white" stroke="white" stroke-miterlimit="10"/>
<path d="M155.221 66.5039H135.398C134.071 66.5039 132.92 67.8561 132.655 69.7L124.69 140.136C124.513 141.366 125.133 142.595 126.106 142.718C126.195 142.718 126.283 142.718 126.372 142.718H135.841C137.168 142.718 138.319 141.366 138.584 139.522L140.708 120.468C140.885 118.624 142.035 117.272 143.451 117.272H149.735C162.743 117.272 170.266 108.544 172.212 91.089C173.097 83.4676 172.212 77.5672 169.646 73.3877C166.903 68.8395 161.858 66.5039 155.221 66.5039ZM157.522 92.1954C156.46 102.029 150.973 102.029 145.752 102.029H142.743L144.867 83.5906C144.956 82.4842 145.664 81.6238 146.46 81.6238H147.788C151.327 81.6238 154.69 81.6238 156.46 84.451C157.611 86.172 157.965 88.7534 157.522 92.1954ZM214.425 91.8266H204.956C204.159 91.8266 203.451 92.6871 203.363 93.7934L202.92 97.4812L202.301 96.129C200.266 91.9495 195.664 90.5973 191.15 90.5973C180.708 90.5973 171.77 101.661 170 117.026C169.115 124.771 170.354 132.146 173.54 137.186C176.46 141.857 180.531 143.824 185.487 143.824C193.894 143.824 198.584 136.326 198.584 136.326L198.142 140.013C197.965 141.243 198.584 142.472 199.469 142.595C199.558 142.595 199.646 142.595 199.735 142.595H208.23C209.558 142.595 210.708 141.243 210.973 139.399L216.106 94.408C216.283 93.1788 215.664 91.9495 214.779 91.8266C214.602 91.9495 214.513 91.8266 214.425 91.8266ZM201.15 117.518C200.266 125.017 195.929 130.056 190.443 130.056C187.699 130.056 185.487 128.827 184.071 126.492C182.655 124.156 182.124 120.96 182.566 117.272C183.451 109.774 187.788 104.611 193.186 104.611C195.841 104.611 198.053 105.84 199.469 108.176C201.062 110.511 201.593 113.83 201.15 117.518ZM264.867 91.8266H255.31C254.425 91.8266 253.54 92.4412 253.009 93.5475L239.912 120.468L234.336 94.6539C233.982 93.0558 232.92 91.9495 231.681 91.9495H222.301C221.416 91.9495 220.62 92.9329 220.62 94.2851C220.62 94.531 220.619 94.7768 220.708 95.0227L231.239 137.801L221.416 157.1C220.885 158.084 221.062 159.559 221.77 160.296C222.035 160.542 222.389 160.665 222.743 160.665H232.212C233.097 160.665 233.982 160.05 234.513 159.067L266.195 95.5144C266.726 94.531 266.549 93.0558 265.752 92.3183C265.487 92.0724 265.221 91.8266 264.867 91.8266Z" fill="#253B80"/>
<path d="M296.372 66.5039H276.549C275.221 66.5039 274.071 67.8561 273.805 69.7L265.841 140.136C265.664 141.366 266.283 142.595 267.168 142.718C267.257 142.718 267.345 142.718 267.434 142.718H277.611C278.584 142.718 279.381 141.734 279.469 140.505L281.77 120.468C281.947 118.624 283.097 117.272 284.513 117.272H290.797C303.805 117.272 311.328 108.544 313.363 91.089C314.248 83.4676 313.363 77.5672 310.797 73.3877C307.965 68.8395 303.009 66.5039 296.372 66.5039ZM298.673 92.1954C297.611 102.029 292.213 102.029 286.903 102.029H283.894L286.018 83.5906C286.106 82.4842 286.814 81.6238 287.611 81.6238H288.938C292.478 81.6238 295.841 81.6238 297.611 84.451C298.761 86.172 299.115 88.7534 298.673 92.1954ZM355.575 91.8266H346.106C345.31 91.8266 344.602 92.6871 344.513 93.7934L344.071 97.4812L343.363 96.129C341.328 91.9495 336.726 90.5973 332.212 90.5973C321.77 90.5973 312.832 101.661 311.062 117.026C310.177 124.771 311.416 132.146 314.602 137.186C317.522 141.857 321.593 143.824 326.549 143.824C334.956 143.824 339.646 136.326 339.646 136.326L339.204 140.013C339.027 141.243 339.646 142.472 340.531 142.595C340.62 142.595 340.708 142.595 340.797 142.595H349.292C350.62 142.595 351.77 141.243 352.036 139.399L357.168 94.408C357.345 93.1788 356.726 91.9495 355.752 91.8266C355.664 91.9495 355.664 91.8266 355.575 91.8266ZM342.301 117.518C341.416 125.017 337.08 130.056 331.593 130.056C328.85 130.056 326.637 128.827 325.221 126.492C323.805 124.156 323.274 120.96 323.717 117.272C324.602 109.774 328.938 104.611 334.336 104.611C336.991 104.611 339.204 105.84 340.62 108.176C342.212 110.511 342.743 113.83 342.301 117.518ZM366.726 68.3478L358.584 140.136C358.407 141.366 359.027 142.595 359.912 142.718C360 142.718 360.089 142.718 360.177 142.718H368.319C369.646 142.718 370.797 141.366 371.062 139.522L379.027 69.0853C379.204 67.8561 378.584 66.6268 377.699 66.5039C377.611 66.5039 377.522 66.5039 377.434 66.5039H368.319C367.522 66.5039 366.814 67.2415 366.726 68.3478Z" fill="#179BD7"/>
<path d="M42.5662 156.486L44.0706 143.087L40.7078 142.964H24.6016L35.752 44.5009C35.8405 43.8862 36.1945 43.3945 36.637 43.3945H63.8051C72.8317 43.3945 79.0263 45.976 82.3007 51.1388C83.8051 53.5974 84.7786 56.0559 85.221 58.8832C85.752 61.8334 85.752 65.2753 85.221 69.4548V69.8235V72.5279L86.7255 73.7572C87.8759 74.6176 88.9378 75.724 89.8228 77.0762C91.1502 79.1659 91.9467 81.7473 92.3007 84.8205C92.6547 88.0165 92.5662 91.8272 91.9467 96.1296C91.2387 101.047 90.0883 105.349 88.5839 108.914C87.2564 112.11 85.4865 114.814 83.2741 116.904C81.2387 118.871 78.8494 120.346 76.1945 121.329C73.5396 122.313 70.6193 122.805 67.3449 122.805H65.221C63.7166 122.805 62.2122 123.542 61.0617 124.894C59.9113 126.246 59.1148 128.213 58.9378 130.18L58.7609 131.409L56.106 154.888L56.0175 155.749C56.0175 155.994 55.929 156.117 55.8405 156.24C55.752 156.363 55.6635 156.363 55.575 156.363L42.5662 156.486Z" fill="#253B80"/>
<path d="M88.2291 70.1914C88.1406 70.929 88.0521 71.6665 87.9636 72.4041C84.4238 97.9726 72.1229 106.7 56.4592 106.7H48.4946C46.5477 106.7 44.9548 108.667 44.6893 111.249L40.6185 147.143L39.4681 157.346C39.2911 158.944 40.0875 160.296 41.1495 160.542C41.238 160.542 41.3265 160.542 41.5035 160.542H55.6627C57.3442 160.542 58.7601 158.821 59.0256 156.608L59.2026 155.625L61.8574 132.146L62.0344 130.917C62.2999 128.581 63.7158 126.983 65.3973 126.983H67.5212C81.238 126.983 91.9459 119.239 95.0433 96.9892C96.3707 87.6468 95.6627 79.9025 92.2114 74.3709C90.9725 72.6499 89.7335 71.1748 88.2291 70.1914Z" fill="#179BD7"/>
<path d="M84.5132 68.1017C83.3628 67.61 82.2123 67.2412 81.0619 66.9954C78.761 66.5037 76.3716 66.2578 74.0707 66.2578H52.8318C51.1504 66.2578 49.7344 67.9788 49.469 70.1914L44.9557 110.019L44.8672 111.126C45.1327 108.544 46.8141 106.577 48.6725 106.577H56.6371C72.3008 106.577 84.5132 97.7268 88.1415 72.2812C88.23 71.5436 88.3185 70.8061 88.407 70.0685C87.4336 69.331 86.4601 68.8392 85.4867 68.3475C85.0442 68.3475 84.7787 68.2246 84.5132 68.1017Z" fill="#222D65"/>
<path d="M49.3805 70.3132C49.646 67.9776 51.0619 66.3796 52.7433 66.3796H73.9822C76.4601 66.3796 78.8495 66.6254 80.9734 67.1171C82.3893 67.4859 83.8938 67.8547 85.2212 68.5922C86.2831 69.0839 87.2566 69.6986 88.1415 70.3132C89.2035 60.8479 88.1415 54.4558 84.4247 48.6783C80.5309 42.0403 73.1858 39.3359 63.8938 39.3359H36.7256C34.7787 39.3359 33.1858 41.3027 32.9203 43.8842L21.5929 143.454C21.4159 145.175 22.3008 146.896 23.5398 147.142C23.6283 147.142 23.8053 147.142 23.8937 147.142H40.6194L44.8672 110.018L49.3805 70.3132Z" fill="#253B80"/>
</g>
<defs>
<clipPath id="clip0_113_82">
<rect width="400" height="200" fill="white"/>
</clipPath>
</defs>
</svg>
