<svg width="400" height="200" viewBox="0 0 400 200" fill="none" xmlns="http://www.w3.org/2000/svg">
<g clip-path="url(#clip0_113_56)">
<path fill-rule="evenodd" clip-rule="evenodd" d="M26.1447 0H373.839C388.279 0 399.983 9.2762 399.983 20.7212V179.266C399.983 190.711 388.279 199.987 373.839 199.987H26.1447C11.7041 200 0 190.711 0 179.266V20.7212C0 9.2762 11.7041 0 26.1447 0Z" fill="white"/>
<path fill-rule="evenodd" clip-rule="evenodd" d="M400 22.7855C400 7.55161 390.01 0 370.641 0H29.3427C19.6662 0 12.5613 2.03815 7.86318 6.23203C2.57161 10.4259 0 15.8218 0 22.7855V177.215C0 184.165 2.57161 189.443 7.86318 193.755C13.3031 197.949 20.2761 199.987 29.3427 199.987H370.641C390.01 199.987 400 192.318 400 177.201V22.7855ZM370.641 3.59289C386.68 3.59289 394.84 10.0732 394.84 22.7724V177.201C394.84 190.031 386.664 196.381 370.641 196.381H29.3427C21.6279 196.381 15.7264 194.578 11.3414 190.985C6.80816 187.51 4.53328 182.715 4.53328 177.201V22.7724C4.53328 10.0732 12.5613 3.59289 29.3427 3.59289H370.641Z" fill="#315881"/>
<path fill-rule="evenodd" clip-rule="evenodd" d="M32.0799 12.4648C25.5684 12.4648 21.4967 13.301 19.2218 15.104C17.2602 17.1421 16.3535 20.4999 16.3535 25.4123V58.8589H383.664V25.4123C383.664 16.6587 378.208 12.4648 367.328 12.4648H32.0799Z" fill="#315881"/>
<path fill-rule="evenodd" clip-rule="evenodd" d="M16.3359 174.091C16.3359 182.962 21.6275 187.522 32.0623 187.522H367.311C378.207 187.522 383.647 182.962 383.647 174.091V140.645H16.3359V174.091Z" fill="#DFA43B"/>
<path fill-rule="evenodd" clip-rule="evenodd" d="M137.976 73.1375C137.976 74.6923 137.679 75.8943 136.921 76.7304L110.447 113.313L108.782 68.7085H66.416L80.6423 74.1044C84.7305 76.1425 86.8405 78.7817 86.8405 82.1394L90.7803 129.5H111.502L161.12 68.7085H135.701C137.218 69.7798 137.976 71.4652 137.976 73.1375ZM309.235 70.4984L310.9 68.6954H285.019C285.926 69.414 286.222 69.7798 286.222 70.015C285.909 70.9687 285.316 71.5697 285.019 72.2883L247.352 126.73C246.445 127.684 245.538 128.533 244.483 129.487H265.814L264.759 127.684C264.759 126.129 265.814 123.255 268.089 119.179L272.622 112.463H294.564C295.47 118.094 296.08 122.772 296.377 126.26L294.564 129.5H321.038L317.098 124.941L309.235 70.4984ZM293.492 103.958H277.766L291.234 83.4589L293.492 103.958ZM228.13 65.5859C219.971 65.5859 212.998 67.3889 206.799 70.9818C199.991 74.1044 196.661 78.05 196.661 82.9755C196.661 88.6066 199.084 93.5321 203.914 97.2426L218.586 105.278C223.877 108.283 226.449 110.909 226.449 113.313C226.449 115.586 225.081 117.624 222.509 119.192C219.938 120.747 217.053 121.465 213.426 121.465C208.135 121.465 199.051 118.473 186.49 112.96V124.104C196.315 128.782 205.86 131.186 215.075 131.186C223.844 131.186 231.262 129.265 237.626 124.954C244.434 120.995 247.764 116.318 247.764 111.17C247.764 106.845 245.34 102.9 239.9 98.6928L225.823 90.6578C221.141 87.6659 218.569 85.0268 218.569 82.9886C218.569 78.3113 222.048 75.9204 229.152 75.9204C233.999 75.9204 241.104 78.0761 250.632 82.6358L253.517 71.0079C245.538 67.3889 237.213 65.5859 228.13 65.5859ZM171.852 129.487C171.555 126.966 170.945 124.692 170.632 122.288L189.853 73.1245L194.386 68.6824H166.709C167.005 69.7668 167.319 71.2039 167.615 72.2753C167.615 73.3597 167.615 74.6792 167.319 75.8681L148.114 124.575L144.174 129.487H171.852Z" fill="#315881"/>
</g>
<defs>
<clipPath id="clip0_113_56">
<rect width="400" height="200" fill="white"/>
</clipPath>
</defs>
</svg>
